<svg width="200" height="22" viewBox="0 0 200 22" fill="none" xmlns="http://www.w3.org/2000/svg">
<g clip-path="url(#clip0_6171_16117)">
<path d="M2.61901 20.5207C-0.0974019 16.6528 0.315403 13.1753 3.85744 10.0882C7.39948 7.00108 13.2736 5.01792 21.4798 4.13871C23.2957 4.07413 25.0527 4.04835 26.7507 4.06138C28.5666 3.99679 29.9302 3.75862 30.8417 3.34688C31.8086 3.27579 34.328 3.12499 38.3998 2.89451C42.6762 2.71794 47.7582 2.48213 53.646 2.18706C59.6205 2.02351 65.8149 1.80931 72.2294 1.54446C78.7305 1.41111 84.8072 1.27451 90.4593 1.13466C96.2291 0.917204 101.032 0.770843 104.869 0.695578C108.705 0.620315 110.827 0.636598 111.237 0.744413C111.465 1.34808 112.106 1.68013 113.16 1.74054C114.417 1.85487 115.502 1.70618 116.413 1.29444C117.53 0.936607 118.834 0.737245 120.328 0.69636C121.908 0.786987 122.989 1.01773 123.571 1.38858C124.333 1.26357 125.198 1.16553 126.165 1.09443C127.219 1.15485 128.024 1.0956 128.582 0.916681C129.14 0.737769 129.726 0.729172 130.339 0.890896C131.07 0.975013 131.716 0.927618 132.273 0.748707C134.026 1.10237 136.586 1.39679 139.95 1.63195C143.433 1.78951 147.341 1.95032 151.672 2.11439C156.091 2.40998 160.525 2.601 164.975 2.68746C169.511 2.90544 173.74 3.04255 177.663 3.0988C181.586 3.15506 184.88 3.15414 187.545 3.09606C190.209 3.03799 191.821 2.9195 192.378 2.74058C194.406 1.97102 195.979 2.82054 197.099 5.28913C198.003 5.63629 198.813 6.6108 199.531 8.2127C199.531 8.2127 199.323 8.53824 198.907 9.18931C198.695 9.89432 198.303 11.0952 197.731 12.7918C197.277 14.4109 196.477 15.5039 195.33 16.0708C194.27 16.7693 192.961 17.3481 191.405 17.8073C189.7 18.5531 188.041 18.9853 186.43 19.1038C184.936 19.1447 182.625 18.97 179.496 18.5796C176.485 18.1116 171.747 17.4602 165.285 16.6256C163.704 16.535 162.081 16.3785 160.414 16.1564C158.951 15.9882 157.548 15.7812 156.204 15.5353C155.063 15.3433 154.069 15.2442 153.22 15.2376C152.488 15.1535 152.005 15.1891 151.769 15.3443C151.211 15.5231 150.201 15.5285 148.739 15.3603C147.481 15.246 145.944 15.2211 144.129 15.2857C142.784 15.0399 140.854 14.8026 138.338 14.5739C135.822 14.3453 133.204 14.0897 130.484 13.8071C127.85 13.6561 125.479 13.5201 123.373 13.3993C121.383 13.2008 120.27 13.1792 120.035 13.3344C119.595 13.4357 119.053 13.5101 118.408 13.5575C117.85 13.7364 117.177 13.6135 116.392 13.1887C116.162 12.585 115.608 12.3846 114.728 12.5871C114.053 12.8436 113.715 12.9719 113.715 12.9719C112.772 13.5928 108.759 13.7845 101.675 13.5469C98.3662 13.6524 93.4016 13.8107 86.7826 14.0215C80.2503 14.3641 72.9712 14.7269 64.9452 15.1103C57.1237 15.5476 49.4044 16.0118 41.7873 16.503C34.2882 16.9165 27.7992 17.3247 22.3203 17.7276C16.928 18.262 13.4972 18.8246 12.0277 19.4152C8.9711 20.6741 6.90043 21.3779 5.81574 21.5266C4.61321 21.7529 3.54763 21.4176 2.61901 20.5207Z" fill="#1BB6F9"/>
</g>
<defs>
<clipPath id="clip0_6171_16117">
<rect width="200" height="21.5962" fill="white" transform="translate(0 0.197266)"/>
</clipPath>
</defs>
</svg>
