<svg width="200" height="42" viewBox="0 0 200 42" fill="none" xmlns="http://www.w3.org/2000/svg">
<g clip-path="url(#clip0_6171_16150)">
<path d="M190.276 34.0098C195.894 33.7601 197.412 27.4844 194.72 24.255C194.757 24.0053 194.775 23.7557 194.792 23.506C201.838 22.5571 201.802 11.7535 194.269 11.9533C193.473 11.97 192.679 11.97 191.866 12.0033C196.78 9.57294 195.931 0.800305 189.264 0.983415C130.765 2.54818 72.2839 4.11294 13.7848 5.67771C6.55818 5.87746 6.28715 15.0995 12.2852 16.9972C10.0992 16.9972 7.93119 16.9972 5.74517 16.9806C-1.95115 16.9306 -1.87888 28.2668 5.74517 28.6164C13.9654 28.9992 22.1676 29.3488 30.3878 29.6318C27.7863 29.7483 25.1847 29.8649 22.565 29.9814C14.941 30.3309 14.8868 41.9667 22.565 41.6172C78.4804 39.087 134.378 36.5401 190.294 34.0098H190.276Z" fill="#FBB130"/>
</g>
<defs>
<clipPath id="clip0_6171_16150">
<rect width="200" height="41" fill="white" transform="translate(0 0.818359)"/>
</clipPath>
</defs>
</svg>
